<svg viewBox="0 0 400 400" xmlns="http://www.w3.org/2000/svg">
  <defs>
    <!-- Gradients for 3D effect -->
    <linearGradient id="cubeGradient1" x1="0%" y1="0%" x2="100%" y2="100%">
      <stop offset="0%" style="stop-color:#4F46E5;stop-opacity:1" />
      <stop offset="100%" style="stop-color:#7C3AED;stop-opacity:1" />
    </linearGradient>
    
    <linearGradient id="cubeGradient2" x1="0%" y1="0%" x2="100%" y2="100%">
      <stop offset="0%" style="stop-color:#7C3AED;stop-opacity:1" />
      <stop offset="100%" style="stop-color:#C026D3;stop-opacity:1" />
    </linearGradient>
    
    <linearGradient id="cubeGradient3" x1="0%" y1="0%" x2="100%" y2="100%">
      <stop offset="0%" style="stop-color:#3B82F6;stop-opacity:1" />
      <stop offset="100%" style="stop-color:#4F46E5;stop-opacity:1" />
    </linearGradient>
    
    <!-- Shadow filter -->
    <filter id="shadow" x="-50%" y="-50%" width="200%" height="200%">
      <feDropShadow dx="2" dy="4" stdDeviation="3" flood-color="rgba(0,0,0,0.3)"/>
    </filter>
    
    <!-- Glow effect -->
    <filter id="glow" x="-50%" y="-50%" width="200%" height="200%">
      <feGaussianBlur stdDeviation="3" result="coloredBlur"/>
      <feMerge> 
        <feMergeNode in="coloredBlur"/>
        <feMergeNode in="SourceGraphic"/>
      </feMerge>
    </filter>
  </defs>
  
  <!-- Background circle with gradient -->
  <circle cx="200" cy="200" r="190" fill="url(#cubeGradient1)" opacity="0.1" filter="url(#glow)"/>
  
  <g transform="translate(10, 20)">
    <!-- 3D Cube representation -->
    <!-- Front face -->
    <path d="M 120 160 L 200 160 L 200 240 L 120 240 Z" 
          fill="url(#cubeGradient1)" 
          filter="url(#shadow)"/>
    
    <!-- Right face -->
    <path d="M 200 160 L 260 120 L 260 200 L 200 240 Z" 
          fill="url(#cubeGradient2)" 
          filter="url(#shadow)"/>
    
    <!-- Top face -->
    <path d="M 120 160 L 180 120 L 260 120 L 200 160 Z" 
          fill="url(#cubeGradient3)" 
          filter="url(#shadow)"/>
    
    <!-- Wireframe overlay for tech feel -->
    <g stroke="#ffffff" stroke-width="2" fill="none" opacity="0.3">
      <!-- Front face wireframe -->
      <rect x="120" y="160" width="80" height="80"/>
      <!-- Connection lines for 3D effect -->
      <line x1="120" y1="160" x2="180" y2="120"/>
      <line x1="200" y1="160" x2="260" y2="120"/>
      <line x1="200" y1="240" x2="260" y2="200"/>
    </g>
    
    <!-- Tech accent - small geometric elements -->
    <circle cx="160" cy="200" r="3" fill="#ffffff" opacity="0.6"/>
    <circle cx="230" cy="150" r="2" fill="#ffffff" opacity="0.4"/>
    <rect x="140" y="210" width="4" height="4" fill="#ffffff" opacity="0.5" rx="1"/>
  </g>
</svg>